<?xml version="1.0" standalone="no"?>
<!DOCTYPE svg PUBLIC "-//W3C//DTD SVG 20010904//EN"
 "http://www.w3.org/TR/2001/REC-SVG-20010904/DTD/svg10.dtd">
<svg version="1.0" xmlns="http://www.w3.org/2000/svg"
 width="1024.000000pt" height="1024.000000pt" viewBox="0 0 1024.000000 1024.000000"
 preserveAspectRatio="xMidYMid meet">

<g transform="translate(0.000000,1024.000000) scale(0.100000,-0.100000)"
fill="#000000" stroke="none">
<path d="M0 9806 c0 -405 1 -435 18 -439 16 -4 16 -5 0 -6 -17 -1 -18 -43 -18
-735 0 -578 3 -735 13 -739 9 -4 9 -6 0 -6 -19 -1 -19 -1737 0 -1744 9 -4 9
-6 0 -6 -19 -1 -19 -1147 0 -1154 10 -4 10 -6 0 -6 -10 -1 -13 -299 -13 -1455
l0 -1455 33 -4 32 -4 -32 -1 -33 -2 0 -940 0 -940 323 0 c177 0 2171 0 4431 0
2260 0 4107 -2 4104 -5 -2 -3 -1997 -5 -4431 -5 l-4427 0 0 -80 c0 -72 2 -80
19 -80 11 0 22 8 24 18 4 16 5 16 6 0 1 -17 218 -18 4411 -18 l4409 0 4 73 3
72 2 -72 2 -73 680 0 680 0 0 80 0 80 -685 0 -685 0 2 753 3 752 2 -748 3
-747 409 0 410 0 4 38 4 37 1 -37 2 -38 265 0 265 0 0 4595 0 4596 -270 -3
-270 -3 1 25 c1 17 3 19 6 8 4 -17 25 -18 269 -18 l264 0 0 435 0 435 -265 0
-265 0 -3 -417 -2 -418 -3 418 -2 417 -410 0 -410 0 0 -435 0 -435 408 -3 407
-2 -408 -3 -407 -2 0 -746 c0 -411 -2 -749 -5 -752 -3 -3 -5 531 -5 1186 l0
1192 -4110 0 -4110 0 0 -122 c0 -67 -2 -119 -5 -117 -2 3 -6 57 -8 120 l-3
114 -292 3 -292 2 -3 -402 -2 -403 -3 403 c-2 395 -2 402 -22 402 -20 0 -20
-7 -20 -434z m647 -73 c-2 -37 -3 -9 -3 62 0 72 1 102 3 68 2 -34 2 -93 0
-130z m0 -275 c-2 -13 -4 -3 -4 22 0 25 2 35 4 23 2 -13 2 -33 0 -45z m8211
-93 c-2 -3 -1985 -5 -4406 -5 l-4402 0 -3 -443 -2 -442 -3 450 -2 450 4412 -3
c2426 -1 4409 -4 4406 -7z m-8211 -172 c-2 -21 -4 -6 -4 32 0 39 2 55 4 38 2
-18 2 -50 0 -70z m9060 -220 c-1 -60 -3 -11 -3 107 0 118 2 167 3 108 2 -60 2
-156 0 -215z m-9060 -115 c-2 -35 -3 -7 -3 62 0 69 1 97 3 63 2 -35 2 -91 0
-125z m4699 64 c6 -4 19 -52 30 -107 l19 -99 59 -15 58 -15 31 34 c16 19 46
52 64 73 l34 39 75 -37 c41 -20 74 -40 74 -43 0 -4 -9 -41 -20 -82 -11 -41
-20 -82 -20 -92 0 -9 23 -35 50 -58 l51 -42 87 31 c48 17 90 31 94 31 4 0 28
-32 53 -71 l47 -72 -66 -66 c-36 -37 -66 -71 -66 -78 0 -6 12 -36 26 -66 28
-63 33 -65 159 -70 l70 -2 5 -63 c3 -35 1 -66 -3 -69 -5 -3 -129 -3 -277 -1
l-270 3 -12 54 c-10 44 -9 56 1 59 7 2 24 14 38 26 l26 23 -23 47 c-12 26 -29
50 -37 53 -8 3 -35 -4 -60 -16 l-45 -22 -57 54 c-31 29 -64 58 -74 63 -19 11
-16 28 18 107 6 13 -1 20 -29 32 -81 34 -88 32 -118 -28 l-26 -54 -89 -2 -88
-1 -28 45 c-16 25 -33 48 -39 51 -5 4 -32 -4 -59 -17 -37 -17 -48 -27 -43 -38
3 -9 13 -35 22 -58 l16 -43 -30 -27 c-17 -16 -48 -50 -69 -76 -27 -34 -42 -46
-54 -42 -9 4 -31 9 -48 12 -31 5 -34 3 -53 -38 -27 -60 -25 -72 14 -93 l35
-18 -3 -110 -3 -110 -41 -18 c-23 -11 -42 -21 -42 -24 0 -3 10 -31 21 -62 23
-60 26 -62 104 -39 16 4 26 -4 47 -37 15 -24 50 -66 79 -95 l52 -52 -12 -45
c-6 -25 -11 -51 -11 -58 0 -12 97 -55 105 -46 1 2 14 26 28 54 l25 50 92 -1
91 0 30 -53 c17 -28 34 -52 39 -52 17 0 100 40 100 48 0 5 -7 29 -16 54 l-15
46 66 67 67 66 41 -16 c23 -10 47 -19 53 -22 7 -2 25 21 42 51 l30 56 -37 29
-38 30 12 58 12 58 277 3 277 2 -7 -52 c-14 -109 -8 -102 -118 -108 l-98 -5
-24 -60 -25 -60 61 -58 61 -57 -42 -71 c-23 -39 -49 -73 -56 -76 -8 -3 -47 7
-88 22 -41 15 -79 25 -84 23 -5 -1 -32 -24 -59 -50 l-50 -47 18 -93 c10 -51
15 -96 12 -99 -4 -3 -37 -20 -74 -37 l-67 -31 -58 67 c-32 37 -58 68 -59 70
-3 6 -129 -33 -136 -42 -3 -5 -14 -51 -23 -103 -16 -87 -18 -93 -41 -93 l-24
0 0 -760 0 -760 49 -25 c185 -93 117 -365 -91 -365 -64 0 -117 28 -162 83 -28
35 -31 45 -31 111 0 64 3 77 28 110 16 20 47 49 70 64 23 15 45 31 49 37 4 5
8 346 8 758 l0 747 -25 0 c-31 0 -38 16 -55 127 l-12 82 -62 14 c-69 16 -50
26 -149 -82 l-40 -44 -69 34 c-38 19 -72 37 -74 41 -3 4 5 49 17 99 l21 92
-50 49 -50 50 -83 -27 c-46 -15 -89 -30 -95 -32 -6 -2 -33 32 -58 76 l-47 80
38 34 c21 19 51 45 66 58 l28 24 -32 69 -32 68 -97 -7 -97 -7 -11 73 c-6 40
-9 76 -6 81 3 4 78 8 166 8 152 0 163 1 185 22 13 12 23 31 23 44 0 44 -21 49
-204 49 -193 0 -174 -10 -161 87 l6 46 104 7 c67 5 105 11 105 19 0 6 11 35
25 63 l24 53 -60 62 c-32 35 -59 69 -59 76 0 19 73 142 85 142 6 0 50 -14 99
-31 l88 -30 48 43 c26 24 48 52 49 63 0 11 -8 55 -18 98 l-19 78 69 34 c38 19
74 35 81 35 7 0 33 -24 57 -54 70 -89 69 -88 136 -73 l59 13 18 85 c9 46 20
94 23 107 5 21 11 22 88 22 45 0 87 -4 93 -8z m4361 -179 c-2 -16 -4 -3 -4 27
0 30 2 43 4 28 2 -16 2 -40 0 -55z m0 -155 c-2 -13 -4 -5 -4 17 -1 22 1 32 4
23 2 -10 2 -28 0 -40z m0 -65 c-3 -10 -5 -4 -5 12 0 17 2 24 5 18 2 -7 2 -21
0 -30z m-9060 -75 c-3 -7 -5 -2 -5 12 0 14 2 19 5 13 2 -7 2 -19 0 -25z m-600
-80 c-3 -7 -5 -2 -5 12 0 14 2 19 5 13 2 -7 2 -19 0 -25z m600 -70 c-3 -8 -6
-5 -6 6 -1 11 2 17 5 13 3 -3 4 -12 1 -19z m-600 -245 c-2 -37 -3 -9 -3 62 0
72 1 102 3 68 2 -34 2 -93 0 -130z m5308 88 c50 -22 99 -70 128 -125 30 -57
30 -165 0 -221 -68 -127 -219 -175 -349 -109 -133 66 -178 207 -110 343 27 52
68 90 126 115 49 21 156 20 205 -3z m4352 -143 c-2 -18 -4 -6 -4 27 0 33 2 48
4 33 2 -15 2 -42 0 -60z m-9060 -20 c-3 -8 -6 -5 -6 6 -1 11 2 17 5 13 3 -3 4
-12 1 -19z m6290 -3 c40 -11 73 -62 73 -112 0 -108 -139 -153 -207 -68 l-28
35 -197 0 -198 0 0 39 0 38 73 5 c39 3 126 4 193 2 l121 -3 37 34 c47 43 71
48 133 30z m-3217 -12 c14 -9 30 -24 36 -31 8 -11 49 -16 177 -20 l167 -5 0
-38 0 -39 -160 0 -161 0 -38 -40 c-33 -35 -43 -40 -84 -40 -85 0 -148 90 -113
159 35 67 120 93 176 54z m-3442 -80 c-26 -2 -71 -2 -100 0 -29 2 -8 3 47 3
55 0 79 -1 53 -3z m260 0 c-27 -2 -69 -2 -95 0 -27 2 -5 3 47 3 52 0 74 -1 48
-3z m119 1 c-3 -3 -12 -4 -19 -1 -8 3 -5 6 6 6 11 1 17 -2 13 -5z m9091 -1
c-10 -2 -26 -2 -35 0 -10 3 -2 5 17 5 19 0 27 -2 18 -5z m155 0 c-13 -2 -33
-2 -45 0 -13 2 -3 4 22 4 25 0 35 -2 23 -4z m-1026 -340 c-1 -59 -3 -13 -3
102 0 116 2 164 3 108 2 -56 2 -151 0 -210z m-8830 175 c-2 -24 -4 -5 -4 42 0
47 2 66 4 43 2 -24 2 -62 0 -85z m3310 -274 l63 -139 57 -6 c138 -16 121 -25
211 119 93 147 76 140 224 85 86 -32 97 -38 93 -57 -14 -64 -45 -244 -45 -261
0 -14 24 -35 84 -72 46 -29 88 -53 94 -53 6 0 66 29 133 65 l121 64 26 -32
c15 -18 50 -57 79 -88 29 -31 53 -61 53 -66 0 -11 -110 -154 -157 -205 l-25
-27 21 -30 c12 -17 40 -68 61 -115 l39 -83 118 4 c65 2 130 5 144 6 26 3 27 0
47 -83 12 -48 24 -105 28 -127 l6 -40 -88 -29 c-97 -32 -98 -32 -485 -26
l-186 2 -13 48 c-34 123 -111 251 -214 352 l-56 54 0 293 0 292 -47 13 c-42
12 -49 12 -55 -1 -4 -9 -7 -135 -7 -280 -1 -246 -2 -263 -18 -258 -104 32
-161 47 -175 47 -16 0 -18 -10 -18 -72 0 -40 3 -110 7 -155 5 -73 8 -82 27
-85 17 -2 21 -10 21 -37 l0 -33 -98 -2 -97 -1 0 37 c0 30 4 37 23 40 22 3 22
5 25 184 2 180 2 181 -22 207 -46 49 -73 31 -78 -52 l-3 -53 -62 -23 c-97 -35
-169 -83 -247 -167 -131 -138 -181 -277 -173 -478 5 -133 24 -195 93 -303 24
-37 44 -71 44 -75 0 -4 -61 -68 -135 -142 -74 -74 -135 -140 -135 -145 0 -6
16 -26 35 -45 l35 -34 22 20 c13 11 79 72 148 136 l126 116 57 -39 c59 -39
177 -82 255 -92 l42 -5 0 149 0 149 -25 6 c-20 5 -25 12 -25 38 l0 31 100 0
100 0 0 -31 c0 -25 -5 -33 -24 -38 -13 -3 -26 -16 -30 -28 -9 -35 -7 -266 2
-272 13 -8 136 21 181 43 l42 20 152 -157 c84 -86 164 -169 179 -184 30 -32
90 -38 123 -14 29 21 15 41 -169 236 l-164 174 59 64 c110 118 170 236 185
368 l7 54 244 0 245 0 -7 -67 c-3 -38 -8 -82 -10 -98 -5 -28 -1 -33 39 -53 25
-12 84 -46 131 -76 l85 -55 -19 -48 c-11 -27 -34 -80 -53 -119 l-33 -72 -135
28 c-74 15 -136 27 -137 26 -1 -1 -31 -43 -68 -95 -56 -79 -65 -98 -57 -115 5
-12 37 -70 71 -131 33 -60 61 -114 60 -120 0 -5 -32 -37 -71 -70 -106 -90
-116 -97 -132 -88 -8 4 -62 50 -121 102 l-106 94 -87 -41 c-48 -22 -95 -42
-104 -46 -16 -5 -18 -22 -18 -160 0 -153 0 -156 -22 -161 -62 -14 -208 -45
-212 -45 -7 0 -42 80 -86 195 l-39 100 -117 13 c-64 7 -121 9 -125 5 -4 -4
-35 -57 -69 -118 -34 -60 -66 -115 -71 -121 -7 -8 -40 2 -117 34 -59 26 -109
47 -110 49 -4 2 24 222 35 274 4 21 -3 30 -49 61 -29 20 -70 48 -90 63 l-37
27 -53 -32 c-29 -18 -91 -50 -137 -71 l-84 -37 -74 100 -73 100 29 37 c16 20
46 52 66 71 20 19 50 52 66 72 l30 37 -48 101 -48 101 -142 -6 -142 -6 -10 38
c-6 21 -21 79 -35 130 l-24 91 66 30 c37 16 101 42 143 57 l76 27 6 106 c3 59
8 115 12 124 6 15 -14 28 -117 78 -67 34 -126 64 -130 68 -4 4 11 62 33 130
31 93 44 122 57 122 9 0 78 -7 152 -15 74 -8 135 -13 135 -12 1 1 29 41 63 90
34 48 62 91 62 95 0 4 -29 61 -65 127 -36 66 -65 127 -65 135 0 20 184 144
202 137 7 -3 57 -44 110 -91 53 -47 101 -86 106 -86 5 0 52 20 104 45 l95 45
6 151 c4 84 9 154 12 157 7 8 207 51 220 48 5 -2 38 -65 72 -142z m3534 -62
l57 -137 83 -6 c46 -3 98 -9 115 -13 24 -5 33 -3 37 9 6 15 134 223 146 237 6
6 226 -75 239 -87 3 -3 -47 -212 -63 -265 -4 -11 27 -39 96 -89 l101 -73 130
62 c91 44 133 59 140 52 6 -6 39 -52 74 -104 l63 -93 -103 -105 -103 -105 38
-95 c20 -52 40 -111 44 -131 7 -43 3 -41 176 -60 l117 -12 6 -43 c3 -23 8 -78
12 -121 l6 -78 -118 -29 c-200 -49 -179 -36 -193 -113 -7 -36 -25 -107 -42
-158 -16 -51 -29 -94 -29 -97 0 -3 45 -44 100 -93 55 -48 100 -92 100 -97 0
-21 -112 -208 -125 -208 -7 0 -67 20 -133 45 -66 25 -123 45 -127 45 -4 0 -28
-18 -53 -41 -26 -22 -75 -59 -109 -81 -35 -23 -63 -46 -63 -52 0 -6 11 -63 24
-126 13 -63 26 -129 29 -146 l6 -31 -116 -44 c-96 -36 -117 -40 -124 -28 -5 8
-20 32 -33 54 -14 22 -44 75 -68 118 l-43 78 -35 -7 c-19 -4 -73 -9 -120 -13
l-84 -6 -59 -151 -60 -152 -56 14 c-31 7 -81 18 -112 25 l-56 11 -7 94 c-3 52
-3 124 0 159 6 56 5 65 -10 65 -8 0 -59 22 -112 50 l-96 50 -94 -82 c-146
-127 -127 -124 -227 -37 -47 41 -86 81 -86 89 -1 8 31 70 69 137 l71 122 -36
46 c-19 26 -35 51 -35 56 0 13 -31 11 -138 -10 -177 -35 -150 -46 -206 85 -43
99 -48 117 -35 129 8 7 67 41 131 75 73 38 115 66 112 74 -2 6 -8 47 -12 90
l-7 77 -128 44 c-71 23 -130 45 -133 47 -7 8 38 233 48 239 6 4 68 10 137 14
l126 7 35 91 c19 50 54 123 77 163 l42 72 -73 121 -74 121 72 68 c111 106 89
104 220 18 l116 -75 43 29 c24 16 77 45 118 65 88 42 86 38 88 216 l1 126 93
20 c151 33 134 43 198 -115z m1986 -439 c-2 -21 -4 -6 -4 32 0 39 2 55 4 38 2
-18 2 -50 0 -70z m-5673 -640 c0 -8 -34 -86 -39 -91 -4 -4 -187 97 -203 113
-11 10 -9 21 13 63 l26 50 102 -64 c56 -35 102 -67 101 -71z m682 81 c27 -46
27 -47 8 -61 -51 -38 -198 -115 -201 -106 -2 6 -13 28 -23 49 -11 21 -17 41
-12 45 13 14 185 119 193 119 5 0 20 -21 35 -46z m4998 -239 c3 -8 1 -15 -4
-15 -6 0 -10 7 -10 15 0 8 2 15 4 15 2 0 6 -7 10 -15z m-8382 -12 c-51 -2
-132 -2 -180 0 -48 1 -6 3 93 3 99 0 138 -2 87 -3z m261 0 c-7 -2 -21 -2 -30
0 -10 3 -4 5 12 5 17 0 24 -2 18 -5z m260 0 c-13 -2 -33 -2 -45 0 -13 2 -3 4
22 4 25 0 35 -2 23 -4z m8650 0 c-13 -2 -35 -2 -50 0 -16 2 -5 4 22 4 28 0 40
-2 28 -4z m344 0 c-20 -2 -52 -2 -70 0 -17 2 0 4 38 4 39 0 53 -2 32 -4z
m-6829 -88 c12 -25 22 -48 22 -50 0 -5 -195 -135 -204 -135 -6 0 -51 80 -51
93 0 8 191 134 206 136 3 1 15 -19 27 -44z m644 -42 l77 -47 -26 -49 c-17 -31
-31 -46 -41 -42 -7 3 -56 32 -107 66 l-94 61 27 48 27 49 30 -20 c17 -10 65
-40 107 -66z m-3785 15 c-2 -13 -4 -3 -4 22 0 25 2 35 4 23 2 -13 2 -33 0 -45z
m5011 -505 c8 -13 0 -26 -37 -59 -57 -51 -95 -119 -111 -198 -13 -65 -9 -103
22 -194 18 -50 19 -65 9 -75 -16 -16 -34 7 -61 80 -27 71 -27 180 0 257 22 65
76 143 123 181 38 29 43 30 55 8z m449 -27 c95 -86 146 -226 124 -347 -16 -90
-40 -149 -62 -149 -28 0 -29 10 -2 90 21 62 24 87 20 143 -7 85 -51 171 -120
233 -41 37 -47 47 -37 59 18 22 23 20 77 -29z m-658 -550 c-2 -2 -15 -9 -29
-16 -23 -12 -24 -12 -11 3 7 10 20 17 29 17 8 0 13 -2 11 -4z m856 -7 c12 -19
-5 -23 -22 -6 -16 16 -16 17 -1 17 9 0 20 -5 23 -11z m2551 -54 c39 -26 68
-98 60 -154 -16 -114 -158 -168 -247 -94 -150 126 23 356 187 248z m-2968
-156 l3 -137 -36 -4 c-20 -2 -38 -2 -40 1 -8 7 -6 267 2 275 4 4 21 6 38 4
l30 -3 3 -136z m-1901 -270 c122 -21 285 -88 391 -161 96 -65 233 -212 276
-295 9 -18 16 -34 16 -38 0 -9 -721 -5 -739 5 -39 20 -147 30 -227 20 -344
-44 -516 -429 -322 -720 48 -72 131 -138 216 -171 79 -31 270 -38 362 -15 115
30 196 75 288 160 17 16 32 34 32 38 0 4 -148 8 -330 8 l-330 0 0 205 0 205
575 0 575 0 0 -520 0 -520 -230 0 -230 0 0 45 c0 25 -3 45 -7 45 -5 0 -24 -10
-43 -22 -240 -147 -639 -161 -916 -33 -255 117 -437 328 -515 596 -30 103 -38
333 -15 442 56 271 244 511 502 641 89 44 224 84 329 96 89 10 255 5 342 -11z
m4003 11 c239 -25 429 -110 601 -268 58 -54 159 -183 175 -226 6 -14 -29 -16
-357 -16 -309 0 -372 3 -414 17 -78 25 -225 22 -300 -7 -117 -45 -215 -135
-268 -248 -30 -64 -32 -73 -32 -192 0 -122 1 -127 34 -194 61 -126 191 -226
332 -257 84 -17 258 -7 339 20 79 27 170 85 230 146 l44 45 -312 0 -312 0 0
205 0 205 550 0 550 0 0 -514 0 -515 -42 -5 c-24 -3 -126 -4 -228 -3 l-185 2
-3 43 c-2 24 -6 42 -10 40 -4 -2 -41 -20 -82 -40 -135 -67 -235 -90 -405 -95
-127 -4 -166 -2 -255 17 -182 37 -323 108 -452 229 -128 120 -204 242 -264
421 -26 80 -28 96 -29 255 0 148 3 180 23 248 55 191 185 378 346 498 209 156
447 218 726 189z m-2708 -295 c234 -339 341 -491 396 -566 l43 -58 -30 -43
c-47 -67 -210 -287 -266 -358 l-50 -65 -5 75 -5 75 -163 230 c-89 127 -192
271 -227 320 -294 412 -465 654 -465 659 0 3 132 5 292 4 l293 -3 187 -270z
m1902 263 c-4 -7 -34 -48 -67 -92 -32 -43 -103 -140 -156 -215 -234 -327 -386
-540 -421 -586 -20 -27 -77 -104 -126 -170 l-89 -120 -5 -180 -5 -180 -66 95
c-248 358 -334 486 -333 495 1 10 641 913 672 948 14 15 42 17 309 17 233 0
293 -3 287 -12z m-1241 -14 c101 -34 187 -149 187 -248 0 -97 -12 -119 -175
-333 -33 -43 -73 -97 -89 -120 l-28 -42 -66 97 c-36 53 -90 129 -120 167 -74
95 -92 136 -92 215 0 197 191 329 383 264z m-71 -1143 c24 -33 86 -120 138
-195 52 -75 130 -187 173 -248 44 -61 86 -122 94 -135 l15 -23 -476 0 c-454 0
-476 1 -467 18 5 10 49 72 98 138 48 66 151 207 228 312 77 105 143 192 147
192 4 0 27 -27 50 -59z m-2614 -1003 l-3 -33 -67 2 c-66 1 -68 0 -68 -23 0
-22 4 -24 45 -24 43 0 45 -1 45 -30 0 -29 -2 -30 -45 -30 -41 0 -45 -2 -45
-25 0 -24 2 -25 76 -25 l75 0 -3 -27 -3 -28 -102 -3 -103 -3 0 141 0 140 101
0 100 0 -3 -32z m94 -75 l3 -108 68 -3 c68 -3 68 -3 65 -30 l-3 -27 -95 0 -95
0 -3 95 c-2 52 0 114 3 138 5 36 10 42 30 42 24 0 24 -1 27 -107z m366 75 l-3
-33 -67 3 c-67 3 -68 3 -68 -22 0 -23 4 -25 48 -28 43 -3 47 -5 47 -28 0 -23
-4 -25 -48 -28 -43 -3 -48 -5 -45 -25 3 -20 10 -22 70 -25 57 -2 68 -6 73 -23
4 -11 4 -24 0 -27 -4 -4 -50 -7 -103 -7 l-97 0 -3 124 c-1 69 0 131 2 138 4 9
32 13 101 13 l96 0 -3 -32z m193 20 c27 -7 39 -17 39 -29 0 -28 -35 -43 -72
-30 -54 19 -89 -30 -68 -94 15 -45 42 -61 80 -45 21 9 33 9 50 0 28 -15 22
-30 -23 -53 -117 -60 -231 109 -145 218 35 44 73 53 139 33z m285 -2 c3 -8 0
-24 -6 -36 -9 -17 -17 -20 -46 -14 l-34 6 0 -111 0 -111 -30 0 -30 0 0 110 0
110 -40 0 c-35 0 -40 3 -40 23 0 13 3 27 7 30 3 4 53 7 110 7 80 0 105 -3 109
-14z m159 4 c72 -17 99 -91 51 -147 l-24 -28 29 -42 c16 -23 29 -44 29 -47 0
-3 -13 -6 -30 -6 -31 0 -37 5 -73 60 -32 50 -52 46 -52 -10 0 -42 -2 -45 -27
-48 l-28 -3 0 140 0 141 43 0 c23 0 60 -5 82 -10z m296 -28 c33 -30 42 -46 46
-83 7 -59 -16 -113 -59 -139 -40 -24 -69 -25 -113 -4 -48 23 -69 68 -63 139 4
51 9 62 41 92 52 47 94 46 148 -5z m249 23 c55 -29 26 -76 -35 -58 -50 16 -75
-5 -75 -60 0 -55 22 -87 61 -87 19 0 29 5 29 15 0 8 -9 15 -20 15 -22 0 -25
12 -9 42 8 15 17 18 37 13 41 -10 52 -24 52 -65 0 -47 -25 -71 -82 -77 -78 -8
-138 55 -138 144 0 96 98 160 180 118z m141 -45 c17 -33 36 -60 40 -60 5 0 22
27 39 61 22 43 36 59 48 57 15 -3 17 -21 20 -141 l3 -137 -26 0 c-25 0 -30 10
-38 75 l-4 30 -18 -42 c-10 -24 -22 -43 -26 -43 -5 0 -13 18 -19 40 -15 55
-30 50 -30 -10 0 -47 -2 -50 -25 -50 -33 0 -39 27 -32 155 7 148 18 158 68 65z
m379 23 l0 -33 -60 0 c-53 0 -60 -2 -60 -20 0 -17 7 -20 40 -20 38 0 40 -2 40
-30 0 -31 -6 -34 -57 -32 -18 1 -23 -4 -23 -23 0 -24 3 -25 65 -25 l65 0 0
-30 0 -31 -97 3 -98 3 -3 124 c-1 69 -1 130 2 137 3 9 33 12 95 12 l91 -1 0
-34z m198 21 c35 -17 40 -35 17 -54 -14 -12 -30 -11 -67 5 -24 10 -58 -28 -58
-65 0 -52 26 -90 60 -90 20 0 30 5 30 15 0 9 -9 15 -21 15 -15 0 -20 5 -17 21
4 29 29 43 61 35 20 -5 28 -14 33 -41 10 -53 -1 -81 -37 -94 -53 -18 -83 -13
-124 22 -35 30 -39 39 -43 93 -5 73 8 108 50 134 40 24 74 25 116 4z m145 -45
l34 -61 22 30 c12 17 27 45 32 62 8 22 17 30 35 30 l24 0 0 -140 0 -140 -25 0
c-25 0 -31 10 -38 75 l-3 30 -17 -37 c-24 -52 -32 -53 -53 -5 l-18 42 -4 -53
c-3 -51 -4 -53 -30 -50 l-27 3 1 120 c1 177 11 192 67 94z m359 -64 c57 -144
58 -155 19 -155 -23 0 -30 5 -33 23 -3 19 -10 22 -54 25 -48 3 -52 1 -58 -23
-5 -18 -13 -25 -31 -25 -36 0 -33 21 22 161 62 158 70 158 135 -6z m139 103
c17 -34 79 -108 90 -108 5 0 9 29 9 65 l0 65 30 0 31 0 -3 -137 c-3 -133 -4
-138 -25 -141 -16 -2 -32 12 -68 62 -26 36 -51 66 -56 66 -5 0 -9 -29 -9 -65
l0 -65 -30 0 -30 0 0 140 0 140 25 0 c15 0 29 -8 36 -22z m370 -108 c27 -69
49 -131 49 -138 0 -9 -11 -12 -32 -10 -26 2 -34 8 -36 26 -3 21 -8 23 -50 20
-38 -2 -49 -8 -57 -25 -7 -16 -18 -23 -38 -23 -34 0 -35 -2 30 163 62 155 68
155 134 -13z m170 59 l54 -71 5 69 c5 64 6 68 31 71 25 3 26 1 31 -55 2 -32 4
-94 4 -138 -1 -117 -25 -115 -116 11 l-35 48 -3 -72 -3 -72 -29 0 -30 0 0 140
c0 130 1 140 19 140 11 0 39 -27 72 -71z m229 -70 l0 -140 -27 3 -28 3 -3 105
c-4 141 2 170 33 170 l25 0 0 -141z m218 121 c39 -24 40 -32 7 -50 -19 -10
-31 -11 -50 -2 -31 14 -49 8 -64 -24 -16 -37 -14 -68 10 -98 24 -30 45 -33 71
-10 14 14 20 14 33 4 38 -31 9 -70 -59 -77 -39 -5 -48 -2 -82 29 -34 32 -38
41 -42 94 -3 50 0 64 20 94 41 61 97 76 156 40z m228 -115 c29 -71 53 -134 53
-138 1 -5 -14 -7 -31 -5 -25 2 -34 8 -36 26 -3 20 -9 22 -58 22 -49 0 -54 -2
-60 -26 -5 -20 -12 -24 -33 -22 -32 4 -31 13 16 133 48 123 61 147 80 143 10
-2 36 -51 69 -133z m281 123 c15 -7 29 -13 31 -14 1 -1 -3 -13 -9 -28 -13 -28
-28 -33 -46 -15 -15 15 -58 7 -58 -11 0 -8 16 -19 36 -25 57 -16 79 -36 86
-77 5 -33 2 -41 -27 -68 -36 -34 -62 -37 -120 -14 -43 17 -50 33 -24 55 12 10
20 10 35 1 27 -17 66 -15 73 4 8 21 10 19 -49 41 -60 22 -83 58 -66 102 22 52
82 73 138 49z m330 2 c53 -19 71 -104 32 -154 l-20 -26 20 -29 c26 -36 26 -47
4 -53 -32 -7 -51 3 -64 33 -13 33 -35 59 -50 59 -5 0 -9 -20 -9 -44 0 -49 -9
-61 -40 -51 -19 6 -20 15 -20 134 0 70 3 131 7 134 10 11 107 8 140 -3z m241
4 c21 -6 22 -11 22 -110 l0 -104 71 0 70 0 -3 -27 -3 -28 -97 -1 -98 -1 0 139
c0 76 3 138 8 138 4 0 17 -3 30 -6z m274 -240 c-7 -34 -32 -42 -56 -18 -20 20
-20 29 0 49 14 14 19 14 38 1 12 -8 20 -22 18 -32z m-704 4 c2 -20 -2 -28 -19
-33 -29 -9 -53 15 -44 44 10 34 59 25 63 -11z m340 1 c3 -27 -18 -41 -45 -32
-14 5 -18 45 -6 57 16 16 48 1 51 -25z m-6415 -6 c-211 -2 -555 -2 -765 0
-211 1 -39 2 382 2 421 0 593 -1 383 -2z m520 0 c-13 -2 -33 -2 -45 0 -13 2
-3 4 22 4 25 0 35 -2 23 -4z m7065 0 c-32 -2 -84 -2 -115 0 -32 2 -6 3 57 3
63 0 89 -1 58 -3z m483 0 c-309 -3 -407 -6 -413 -16 -5 -8 -8 -7 -8 6 0 16 25
17 413 15 l412 -3 -404 -2z m452 0 c-7 -2 -21 -2 -30 0 -10 3 -4 5 12 5 17 0
24 -2 18 -5z m365 0 c-65 -2 -171 -2 -235 0 -65 1 -12 3 117 3 129 0 182 -2
118 -3z m-6033 -311 c-4 -12 -12 -7 -31 21 -29 44 -42 47 -40 10 0 -16 -3 -28
-9 -28 -5 0 -10 26 -10 58 -1 31 3 57 7 57 5 0 22 -15 38 -32 27 -30 29 -31
30 -11 0 12 3 30 8 40 9 22 16 -92 7 -115z m145 56 c10 -29 16 -55 14 -57 -8
-9 -44 33 -45 53 -1 20 -1 20 -7 1 -11 -33 -30 -60 -37 -53 -6 6 19 97 32 121
9 15 25 -9 43 -65z m330 13 c0 -54 4 -61 31 -54 15 4 19 14 19 54 0 27 5 49
10 49 6 0 10 -25 10 -55 0 -45 -4 -56 -21 -66 -39 -20 -65 2 -72 62 -7 54 -2
73 14 64 5 -4 9 -28 9 -54z m-770 30 c19 -36 12 -79 -15 -97 -23 -15 -27 -15
-50 0 -19 13 -25 25 -25 54 0 21 5 43 12 50 19 19 66 15 78 -7z m98 -31 c-5
-47 -4 -50 18 -50 12 0 26 -4 29 -10 3 -5 0 -10 -9 -10 -8 0 -20 -2 -28 -5
-30 -11 -41 11 -34 69 9 71 30 76 24 6z m576 34 c4 -9 3 -20 0 -23 -4 -3 -9 0
-11 7 -8 22 -42 13 -49 -13 -8 -34 1 -55 26 -55 15 0 20 7 20 25 0 14 5 25 10
25 14 0 12 -54 -2 -68 -17 -17 -35 -15 -58 8 -22 22 -27 79 -8 98 18 18 65 15
72 -4z m314 -46 c2 -36 -1 -58 -8 -58 -5 0 -10 9 -10 20 0 15 -7 20 -25 20
-20 0 -25 -5 -25 -26 0 -14 -4 -23 -10 -19 -7 5 -8 41 -1 113 1 9 13 12 39 10
l37 -3 3 -57z m140 50 c5 -7 10 -37 10 -67 0 -43 -2 -50 -11 -35 -5 10 -10 20
-11 20 -1 1 -11 5 -23 8 -20 6 -23 4 -23 -19 0 -14 -4 -24 -10 -20 -7 5 -8 44
-1 113 0 6 14 12 30 12 16 0 33 -6 39 -12z m94 -15 l-5 -28 32 29 c30 29 43
20 21 -14 -6 -10 -3 -25 10 -47 20 -33 13 -45 -10 -18 -7 8 -19 15 -26 15 -8
0 -14 -7 -14 -15 0 -8 -7 -15 -15 -15 -12 0 -15 13 -15 60 0 44 4 60 14 60 9
0 12 -9 8 -27z m167 -20 c0 -27 -4 -57 -8 -68 -6 -15 -9 -9 -14 26 -7 49 0 89
14 89 5 0 9 -21 8 -47z m305 25 c33 -47 12 -95 -44 -100 l-35 -3 -3 63 -3 62
35 0 c25 0 39 -6 50 -22z m151 12 c-3 -5 -17 -10 -31 -10 -17 0 -24 -5 -24
-20 0 -15 7 -20 28 -21 27 0 27 -1 5 -11 -30 -15 -29 -28 2 -28 14 0 25 -4 25
-10 0 -5 -18 -10 -40 -10 l-40 0 0 60 0 60 41 0 c24 0 38 -4 34 -10z m131 -42
c9 -29 19 -59 22 -67 4 -11 1 -11 -16 -2 -11 6 -24 20 -27 32 -7 20 -8 19 -28
-12 -11 -19 -22 -29 -24 -23 -5 15 36 124 47 124 5 0 16 -24 26 -52z m144 42
c0 -5 -7 -10 -15 -10 -11 0 -15 -12 -15 -50 0 -27 -4 -50 -10 -50 -5 0 -10 23
-10 50 0 38 -4 50 -15 50 -8 0 -15 5 -15 10 0 6 18 10 40 10 22 0 40 -4 40
-10z m140 -3 c0 -9 -10 -12 -30 -9 -26 4 -30 1 -30 -18 0 -19 4 -21 25 -16 14
4 25 2 25 -4 0 -5 -9 -10 -20 -10 -11 0 -20 -7 -20 -15 0 -10 10 -15 30 -15
17 0 30 -4 30 -10 0 -5 -20 -10 -45 -10 l-45 0 0 60 0 60 40 0 c27 0 40 -4 40
-13z m140 -7 c0 -18 -3 -19 -20 -8 -10 7 -22 10 -25 7 -11 -12 7 -38 28 -41
28 -4 31 -21 9 -48 -13 -17 -24 -21 -40 -16 -12 4 -22 14 -22 22 0 11 6 13 20
9 11 -3 25 -3 31 1 7 4 -1 11 -22 18 -38 12 -48 36 -24 60 24 24 65 21 65 -4z
m90 -14 c0 -47 9 -66 30 -66 21 0 30 19 30 66 0 19 5 34 10 34 13 0 13 -76 0
-101 -7 -12 -21 -19 -40 -19 -19 0 -33 7 -40 19 -13 25 -13 101 0 101 6 0 10
-15 10 -34z m170 24 c0 -5 7 -10 15 -10 7 0 19 -8 24 -17 9 -16 10 -16 11 4 0
12 5 25 10 28 6 4 10 -19 10 -61 0 -37 -2 -65 -4 -63 -2 2 -18 21 -35 43 l-31
39 0 -37 c0 -20 -4 -36 -10 -36 -6 0 -10 27 -10 60 0 33 4 60 10 60 6 0 10 -4
10 -10z m160 -55 c0 -37 -4 -65 -10 -65 -11 0 -14 113 -3 123 12 13 13 7 13
-58z m157 49 c2 -7 -5 -10 -20 -7 -31 6 -51 -19 -43 -53 6 -23 11 -26 36 -20
37 7 40 -10 5 -26 -21 -9 -28 -8 -45 7 -23 21 -27 84 -8 103 15 15 70 12 75
-4z m2120 -146 c-2 -13 -4 -3 -4 22 0 25 2 35 4 23 2 -13 2 -33 0 -45z m-8830
-560 c-1 -57 -3 -11 -3 102 0 113 2 159 3 103 2 -57 2 -149 0 -205z m0 -290
c-2 -29 -3 -8 -3 47 0 55 1 79 3 53 2 -26 2 -71 0 -100z m9660 -190 c-2 -13
-4 -5 -4 17 -1 22 1 32 4 23 2 -10 2 -28 0 -40z m-9660 -80 c-2 -13 -4 -3 -4
22 0 25 2 35 4 23 2 -13 2 -33 0 -45z"/>
<path d="M5180 8042 c-75 -37 -104 -138 -60 -210 78 -128 280 -72 280 78 0
112 -118 183 -220 132z m118 -85 c32 -29 30 -79 -4 -106 -15 -12 -34 -21 -44
-21 -10 0 -29 9 -44 21 -46 36 -32 113 24 131 20 7 40 -1 68 -25z"/>
<path d="M3305 7248 c-28 -16 -35 -28 -35 -64 0 -39 27 -64 68 -64 60 0 85 81
36 119 -30 24 -41 25 -69 9z"/>
<path d="M2616 6578 c-36 -50 -5 -118 52 -118 57 0 91 77 52 118 -28 30 -83
30 -104 0z"/>
<path d="M3512 5280 c-30 -28 -29 -74 3 -105 13 -14 33 -25 45 -25 31 0 70 44
70 78 0 35 -37 72 -71 72 -14 0 -35 -9 -47 -20z"/>
<path d="M6776 7058 c-21 -29 -20 -51 2 -71 24 -22 55 -21 75 1 22 24 21 55
-1 75 -26 23 -58 21 -76 -5z"/>
<path d="M6400 6861 c-16 -32 -12 -59 14 -76 50 -33 110 31 71 75 -23 26 -71
26 -85 1z"/>
<path d="M7432 6850 c-19 -31 -15 -43 29 -85 22 -22 56 -61 76 -87 20 -25 46
-52 59 -59 21 -11 27 -10 49 11 23 22 24 24 8 54 -37 73 -155 186 -195 186 -7
0 -19 -9 -26 -20z"/>
<path d="M6870 6789 c-141 -17 -267 -84 -376 -200 -62 -67 -99 -128 -132 -222
-33 -96 -38 -281 -8 -367 52 -154 166 -300 286 -367 285 -160 645 -74 826 198
64 97 95 191 101 309 9 181 -52 335 -188 472 -139 139 -314 200 -509 177z
m241 -134 c207 -70 349 -268 349 -485 -1 -249 -192 -466 -445 -502 -67 -9 -93
-8 -159 5 -112 23 -180 59 -258 138 -226 224 -201 587 53 774 136 100 299 125
460 70z"/>
<path d="M6863 6600 c-109 -22 -235 -114 -287 -210 -77 -141 -74 -320 8 -448
54 -86 159 -161 261 -188 293 -79 584 186 536 486 -38 237 -282 406 -518 360z
m219 -122 c72 -33 127 -84 163 -150 40 -73 47 -187 15 -270 -28 -75 -96 -150
-168 -185 -49 -24 -69 -28 -142 -28 -73 0 -93 4 -142 28 -72 35 -140 110 -168
185 -30 79 -25 195 12 267 83 161 268 227 430 153z"/>
<path d="M6870 6328 c-105 -53 -128 -183 -49 -273 37 -41 86 -59 150 -53 128
13 197 159 125 268 -50 76 -143 99 -226 58z m141 -87 c60 -60 23 -160 -59
-161 -44 0 -68 14 -88 51 -20 40 -11 82 28 114 40 34 82 33 119 -4z"/>
<path d="M7761 6274 c-39 -28 -16 -104 31 -104 27 0 60 45 53 73 -9 34 -55 51
-84 31z"/>
<path d="M6060 6220 c-27 -27 -25 -66 5 -95 32 -33 68 -32 94 1 25 32 27 61 5
92 -20 29 -76 30 -104 2z"/>
<path d="M7553 5685 c-45 -19 -94 -106 -91 -159 2 -22 8 -41 14 -43 15 -5 121
92 139 128 20 38 19 66 -4 79 -23 12 -19 12 -58 -5z"/>
<path d="M6250 5666 c0 -20 82 -126 122 -157 30 -24 91 -59 101 -59 3 0 10 14
17 30 15 35 16 34 -79 133 -63 64 -67 67 -113 67 -35 0 -48 -4 -48 -14z"/>
<path d="M6782 5363 c-18 -7 -33 -49 -25 -69 10 -27 52 -37 79 -19 53 35 5
112 -54 88z"/>
<path d="M8111 4857 c-41 -21 -66 -64 -65 -112 1 -54 24 -91 69 -112 31 -15
39 -15 82 -2 53 17 93 63 93 108 0 36 -40 103 -70 118 -32 16 -78 16 -109 0z
m123 -33 c40 -40 3 -59 -48 -25 -36 24 -46 19 -46 -20 0 -27 3 -30 28 -28 51
4 60 0 67 -31 7 -31 -1 -70 -14 -70 -4 0 -14 15 -22 32 -19 45 -49 50 -49 9 0
-31 -16 -49 -31 -34 -4 4 -11 40 -15 79 -5 58 -4 73 10 87 23 22 99 23 120 1z"/>
<path d="M3696 2233 c-3 -4 -6 -19 -6 -35 0 -22 5 -28 21 -28 42 0 78 37 51
54 -14 9 -60 15 -66 9z"/>
<path d="M3940 2220 c-24 -24 -26 -70 -5 -110 31 -60 98 -25 98 50 0 70 -51
102 -93 60z"/>
<path d="M5441 2167 c-13 -34 -7 -47 20 -47 16 0 19 4 13 23 -14 48 -22 54
-33 24z"/>
<path d="M5951 2172 c-16 -30 -14 -42 9 -42 21 0 27 24 11 49 -7 11 -11 10
-20 -7z"/>
<path d="M6790 2171 c0 -5 -3 -16 -6 -24 -6 -16 25 -33 37 -20 9 10 -7 53 -21
53 -5 0 -10 -4 -10 -9z"/>
<path d="M7407 2233 c-13 -12 -7 -54 8 -59 23 -9 65 4 72 23 11 28 -58 59 -80
36z"/>
<path d="M3716 1825 c-17 -46 7 -85 38 -62 25 19 18 71 -10 75 -13 2 -24 -4
-28 -13z"/>
<path d="M4700 1819 c0 -15 5 -20 22 -17 34 5 37 38 4 38 -20 0 -26 -5 -26
-21z"/>
<path d="M4857 1834 c-16 -16 -6 -35 16 -32 12 2 22 10 22 18 0 16 -26 25 -38
14z"/>
<path d="M5410 1795 c0 -42 2 -46 23 -43 19 3 22 9 22 43 0 34 -3 40 -22 43
-21 3 -23 -1 -23 -43z"/>
</g>
</svg>
